<svg width="24" height="24" viewBox="0 0 24 24" fill="none" xmlns="http://www.w3.org/2000/svg">
<path fill-rule="evenodd" clip-rule="evenodd" d="M5.7 15.3333C6.63888 15.3333 7.4 16.0795 7.4 17V20.3333C7.4 21.2538 6.63888 22 5.7 22C4.76112 22 4 21.2538 4 20.3333V17C4 16.0795 4.76112 15.3333 5.7 15.3333ZM12.5 2C13.4389 2 14.2 2.74619 14.2 3.66667V20.3333C14.2 21.2538 13.4389 22 12.5 22C11.5611 22 10.8 21.2538 10.8 20.3333V3.66667C10.8 2.74619 11.5611 2 12.5 2ZM19.3 8.66667C20.2389 8.66667 21 9.41286 21 10.3333V20.3333C21 21.2538 20.2389 22 19.3 22C18.3611 22 17.6 21.2538 17.6 20.3333V10.3333C17.6 9.41286 18.3611 8.66667 19.3 8.66667Z" fill="#38547C"/>
</svg>
