<svg width="24" height="24" viewBox="0 0 24 24" fill="none" xmlns="http://www.w3.org/2000/svg">
<path fill-rule="evenodd" clip-rule="evenodd" d="M8.5 18.9994C9.32843 18.9994 10 19.671 10 20.4994C10 21.3278 9.32843 21.9994 8.5 21.9994C7.67157 21.9994 7 21.3278 7 20.4994C7 19.671 7.67157 18.9994 8.5 18.9994ZM17.5 18.9994C18.3284 18.9994 19 19.671 19 20.4994C19 21.3278 18.3284 21.9994 17.5 21.9994C16.6716 21.9994 16 21.3278 16 20.4994C16 19.671 16.6716 18.9994 17.5 18.9994ZM3 1.99939H5C5.4556 1.99939 5.84831 2.30623 5.96506 2.73713L5.98837 2.84733L6.4733 5.99939H21C21.5998 5.99939 22.0549 6.52007 21.9951 7.09974L21.9762 7.21632L20.3242 14.6502C20.0325 15.9631 18.9059 16.9137 17.5779 16.9939L17.3957 16.9994H8.71584C7.29435 16.9994 6.07697 16.0038 5.78265 14.6293L5.75072 14.4556L4.14208 3.99939H3C2.44772 3.99939 2 3.55167 2 2.99939C2 2.48655 2.38604 2.06388 2.88338 2.00612L3 1.99939H5H3ZM19.7534 7.99939H6.781L7.72747 14.1514C7.79674 14.6018 8.15973 14.9432 8.60337 14.9931L8.71584 14.9994H17.3957C17.8253 14.9994 18.2021 14.7259 18.3402 14.3278L18.3718 14.2163L19.7534 7.99939Z" fill="#38547C"/>
</svg>
