<svg width="20" height="20" viewBox="0 0 20 20" fill="none" xmlns="http://www.w3.org/2000/svg">
<path fill-rule="evenodd" clip-rule="evenodd" d="M7.96227 8.19321C8.1941 8.03866 8.33335 7.77847 8.33335 7.49984V4.1665C8.33335 2.78579 7.21407 1.6665 5.83335 1.6665H2.50002C2.03978 1.6665 1.66669 2.0396 1.66669 2.49984C1.66669 10.7841 9.21575 18.3332 17.5 18.3332C17.9603 18.3332 18.3334 17.9601 18.3334 17.4998V14.1665C18.3334 12.7858 17.2141 11.6665 15.8334 11.6665H12.5C12.2214 11.6665 11.9612 11.8058 11.8066 12.0376L10.2189 14.4193C8.48951 13.3011 6.97439 11.8242 5.80897 10.124L5.58059 9.781L7.96227 8.19321ZM12.946 13.3332H15.8334C16.2936 13.3332 16.6667 13.7063 16.6667 14.1665V16.6376C15.0523 16.5259 13.4768 16.0941 12.0073 15.4095L11.6701 15.247L12.946 13.3332ZM3.36225 3.33317H5.83335C6.29359 3.33317 6.66669 3.70627 6.66669 4.1665V7.05385L4.75284 8.32975C3.97404 6.76521 3.48255 5.07172 3.36225 3.33317Z" fill="#6C8AB6"/>
<path d="M6.66667 2.5H2.5L2.91667 5.83333L4.58333 9.16667L6.66667 7.91667L7.5 6.66667V3.75L6.66667 2.5Z" fill="#6C8AB6"/>
<path d="M12.5 12.5L10.8333 15.4167L12.9166 17.0833L17.0833 17.5L17.9166 14.1667L16.6666 12.5H12.5Z" fill="#6C8AB6"/>
</svg>
