<svg width="20" height="20" viewBox="0 0 20 20" fill="none" xmlns="http://www.w3.org/2000/svg">
<path fill-rule="evenodd" clip-rule="evenodd" d="M18.3334 9.99984C18.3334 5.39746 14.6025 1.6665 10.0001 1.6665C5.39771 1.6665 1.66675 5.39746 1.66675 9.99984C1.66675 14.6022 5.39771 18.3332 10.0001 18.3332C14.6025 18.3332 18.3334 14.6022 18.3334 9.99984ZM10.0001 5.8335C10.4274 5.8335 10.7797 6.1552 10.8278 6.56965L10.8334 6.66683V10.4883L12.256 11.9109C12.5814 12.2363 12.5814 12.764 12.256 13.0894C11.9556 13.3898 11.4829 13.4129 11.156 13.1587L11.0775 13.0894L9.41083 11.4228C9.28059 11.2925 9.19792 11.1236 9.17398 10.943L9.16675 10.8335V6.66683C9.16675 6.20659 9.53984 5.8335 10.0001 5.8335Z" fill="#6C8AB6"/>
</svg>
