<svg width="20" height="20" viewBox="0 0 20 20" fill="none" xmlns="http://www.w3.org/2000/svg">
<path fill-rule="evenodd" clip-rule="evenodd" d="M18.2223 5.09453C18.2945 5.32807 18.3334 5.57625 18.3334 5.8335V14.1668C18.3334 15.5475 17.2141 16.6668 15.8334 16.6668H4.16669C2.78598 16.6668 1.66669 15.5475 1.66669 14.1668V5.8335C1.66669 5.46055 1.74835 5.10667 1.89478 4.78878L9.34987 11.4984C9.72215 11.8334 10.2849 11.8414 10.6665 11.517L18.2223 5.09453ZM17.8508 4.35679C17.8401 4.34216 17.8292 4.32766 17.8182 4.31328L17.8508 4.35679ZM16.8429 3.5457L10 9.5835L3.15718 3.5457C3.46591 3.40927 3.80745 3.3335 4.16669 3.3335H15.8334C16.1926 3.3335 16.5341 3.40927 16.8429 3.5457Z" fill="#6C8AB6"/>
</svg>
