<svg width="20" height="20" viewBox="0 0 20 20" fill="none" xmlns="http://www.w3.org/2000/svg">
<path fill-rule="evenodd" clip-rule="evenodd" d="M18.2226 5.0944C18.2948 5.32795 18.3337 5.57613 18.3337 5.83337V14.1667C18.3337 15.5474 17.2144 16.6667 15.8337 16.6667H4.16699C2.78628 16.6667 1.66699 15.5474 1.66699 14.1667V5.83337C1.66699 5.46042 1.74866 5.10655 1.89508 4.78865L9.35017 11.4982C9.72245 11.8333 10.2852 11.8413 10.6668 11.5169L18.2226 5.0944ZM17.8511 4.35667C17.8404 4.34204 17.8295 4.32754 17.8185 4.31315L17.8511 4.35667ZM16.8432 3.54557L10.0003 9.58337L3.15748 3.54557C3.46622 3.40914 3.80776 3.33337 4.16699 3.33337H15.8337C16.1929 3.33337 16.5344 3.40914 16.8432 3.54557Z" fill="#38547C"/>
</svg>
