<svg width="20" height="20" viewBox="0 0 20 20" fill="none" xmlns="http://www.w3.org/2000/svg">
<path fill-rule="evenodd" clip-rule="evenodd" d="M7.96258 8.1934C8.19441 8.03884 8.33366 7.77865 8.33366 7.50002V4.16669C8.33366 2.78598 7.21437 1.66669 5.83366 1.66669H2.50033C2.04009 1.66669 1.66699 2.03978 1.66699 2.50002C1.66699 10.7843 9.21605 18.3334 17.5003 18.3334C17.9606 18.3334 18.3337 17.9603 18.3337 17.5V14.1667C18.3337 12.786 17.2144 11.6667 15.8337 11.6667H12.5003C12.2217 11.6667 11.9615 11.8059 11.807 12.0378L10.2192 14.4195C8.48982 13.3013 6.9747 11.8243 5.80928 10.1242L5.58089 9.78118L7.96258 8.1934ZM12.9463 13.3334H15.8337C16.2939 13.3334 16.667 13.7065 16.667 14.1667V16.6378C15.0526 16.5261 13.4771 16.0943 12.0076 15.4097L11.6704 15.2472L12.9463 13.3334ZM3.36255 3.33335H5.83366C6.2939 3.33335 6.66699 3.70645 6.66699 4.16669V7.05403L4.75314 8.32993C3.97435 6.76539 3.48285 5.0719 3.36255 3.33335Z" fill="#38547C"/>
<path d="M6.66667 2.5H2.5L2.91667 5.83333L4.58333 9.16667L6.66667 7.91667L7.5 6.66667V3.75L6.66667 2.5Z" fill="#38547C"/>
<path d="M12.4997 12.5L10.833 15.4167L12.9163 17.0833L17.083 17.5L17.9163 14.1667L16.6663 12.5H12.4997Z" fill="#38547C"/>
</svg>
