<svg width="20" height="20" viewBox="0 0 20 20" fill="none" xmlns="http://www.w3.org/2000/svg">
<path fill-rule="evenodd" clip-rule="evenodd" d="M18.3337 9.99984C18.3337 5.39746 14.6027 1.6665 10.0003 1.6665C5.39795 1.6665 1.66699 5.39746 1.66699 9.99984C1.66699 14.6022 5.39795 18.3332 10.0003 18.3332C14.6027 18.3332 18.3337 14.6022 18.3337 9.99984ZM10.0003 5.8335C10.4277 5.8335 10.7799 6.1552 10.8281 6.56965L10.8337 6.66683V10.4883L12.2562 11.9109C12.5817 12.2363 12.5817 12.764 12.2562 13.0894C11.9558 13.3898 11.4832 13.4129 11.1562 13.1587L11.0777 13.0894L9.41107 11.4228C9.28084 11.2925 9.19816 11.1236 9.17422 10.943L9.16699 10.8335V6.66683C9.16699 6.20659 9.54009 5.8335 10.0003 5.8335Z" fill="#38547C"/>
</svg>
