<svg width="348" height="213" viewBox="0 0 348 213" fill="none" xmlns="http://www.w3.org/2000/svg">
<path d="M39.456 145.792H3.6V128.08L33.984 55.36H61.92V127.936H72.72V145.792H61.92V172H39.456V145.792ZM39.456 127.936V79.408L21.888 127.936H39.456Z" fill="white"/>
<path d="M311.456 145.792H275.6V128.08L305.984 55.36H333.92V127.936H344.72V145.792H333.92V172H311.456V145.792ZM311.456 127.936V79.408L293.888 127.936H311.456Z" fill="white"/>
<path d="M114.615 135.747C114.97 137.107 115.309 138.453 115.678 139.858C113.568 139.858 111.458 139.932 109.363 139.828C107.992 139.754 107.053 138.734 106.791 137.359C106.683 136.782 106.575 136.191 106.483 135.614C106.267 134.254 105.451 133.426 104.095 133.026C101.477 132.272 98.8581 131.489 96.2395 130.72C94.8994 130.32 94.0831 129.344 94.0369 128.014C93.9907 126.653 93.9907 125.308 94.0215 123.947C94.0523 122.631 94.8532 121.626 96.2087 121.227C98.8426 120.428 101.492 119.659 104.141 118.89C105.512 118.491 106.267 117.634 106.498 116.273C107.237 111.734 108.531 107.342 110.195 103.039C110.626 101.916 110.349 100.91 109.517 100.038C107.684 98.145 105.851 96.2523 104.003 94.3596C102.786 93.1176 102.586 91.9494 103.433 90.4708C104.018 89.4653 104.603 88.4598 105.235 87.4691C106.128 86.0496 107.237 85.606 108.947 85.9905C111.55 86.5671 114.138 87.1734 116.726 87.7205C118.081 88.0162 119.236 87.7057 120.161 86.6263C123.103 83.1367 126.399 79.9576 130.049 77.1481C131.22 76.2462 131.528 75.1224 131.205 73.7916C130.604 71.2779 129.972 68.7642 129.372 66.2505C129.017 64.7866 129.464 63.6924 130.789 62.894C131.913 62.2138 133.084 61.578 134.254 60.9717C135.625 60.262 136.858 60.4542 137.982 61.4597C139.969 63.234 141.971 65.0084 143.943 66.8124C144.944 67.7144 146.069 67.9509 147.332 67.4926C151.845 65.8513 156.497 64.6683 161.256 63.929C162.488 63.7368 163.274 62.9383 163.628 61.7702C164.414 59.2565 165.23 56.7428 166.031 54.2291C166.493 52.78 167.525 52.0407 169.096 52.0111C170.375 51.9963 171.669 51.9963 172.947 52.0111C174.487 52.0407 175.504 52.78 175.951 54.1847C176.767 56.7132 177.568 59.2565 178.384 61.7998C178.769 63.027 179.617 63.7664 180.926 63.9734C185.485 64.6979 189.952 65.7478 194.265 67.3743C195.775 67.9509 197.068 67.7735 198.27 66.6349C200.057 64.9493 201.936 63.3375 203.769 61.6815C205.201 60.3802 206.326 60.2176 208.066 61.1344C209.175 61.711 210.253 62.3173 211.316 62.9531C212.564 63.722 212.98 64.8014 212.641 66.2061C212.025 68.7494 211.393 71.2779 210.793 73.8212C210.469 75.1372 210.823 76.261 211.932 77.1186C215.521 79.8984 218.787 82.9888 221.667 86.4341C222.715 87.6909 223.962 88.0458 225.549 87.6613C228.136 87.0403 230.724 86.4784 233.327 85.9017C234.59 85.6208 235.853 86.0792 236.547 87.129C237.317 88.2972 238.041 89.4801 238.703 90.7074C239.412 91.979 239.181 93.1619 238.148 94.2266C236.316 96.1192 234.483 98.0267 232.619 99.8898C231.618 100.895 231.387 102.019 231.879 103.276C233.605 107.564 234.791 111.97 235.545 116.51C235.746 117.737 236.593 118.491 237.825 118.861C240.474 119.63 243.124 120.399 245.758 121.197C247.129 121.611 247.929 122.602 247.976 123.977C248.007 125.308 248.007 126.639 247.976 127.969C247.945 129.315 247.129 130.291 245.711 130.72C243.386 131.415 241.06 132.08 238.734 132.76C237.948 132.982 237.163 133.189 236.485 133.677C236.316 133.573 236.3 133.396 236.269 133.233C235.669 130.631 235.052 128.028 234.452 125.426C234.082 123.829 233.774 122.188 233.112 120.68C231.864 117.841 230.077 115.327 227.659 113.242C227.659 113.124 227.674 112.991 227.644 112.872C225.148 101.413 219.588 91.565 210.7 83.5211C200.565 74.3535 188.52 69.3113 174.626 68.4093C165.338 67.8179 156.42 69.3409 147.902 72.9044C141.633 75.5216 136.041 79.1147 131.097 83.6542C123.565 90.5891 118.343 98.8547 115.447 108.481C113.969 113.419 113.198 118.476 113.26 123.622C113.26 123.903 113.26 124.169 113.26 124.45C113.168 125.781 113.383 127.112 113.414 128.443C113.368 129.551 113.399 130.66 113.814 131.71C113.984 132.745 114.169 133.795 114.338 134.83C113.999 135.274 114.261 135.525 114.615 135.747Z" fill="white"/>
<path d="M114.845 135.915C114.49 135.678 114.228 135.44 114.598 135.024C114.752 135.247 114.999 135.291 115.245 135.366C117.172 135.96 119.099 136.554 121.01 137.178C132.107 140.862 142.695 145.646 152.96 151.142C158.539 154.128 164.011 157.293 169.343 160.695C171.84 162.284 174.306 163.88 176.803 165.47V165.463C176.603 164.78 176.094 164.29 175.693 163.725C172.426 159.09 168.603 154.886 164.535 150.89C163.409 149.791 162.392 148.587 161.498 147.622C162.099 147.696 163.009 148.067 163.903 148.483C166.877 149.865 169.374 151.87 171.701 154.099C176.186 158.362 179.901 163.22 183.214 168.36C183.446 168.717 183.661 168.865 184.108 168.865C200.492 168.851 216.891 168.851 233.274 168.865C233.737 168.865 233.922 168.717 234.076 168.301C235.54 164.379 236.989 160.442 238.561 156.55C238.992 155.465 238.946 154.663 238.237 153.727C237.775 153.118 237.358 152.836 236.572 152.836C218 152.851 199.428 152.851 180.856 152.866C179.824 152.866 178.899 152.687 178.005 152.168C176.972 151.558 175.909 151.009 174.83 150.504C174.09 150.162 173.705 149.627 173.458 148.914C171.778 144.279 170.083 139.644 168.388 135.009C167.602 132.87 166.831 130.716 166.06 128.576C166.184 128.636 166.261 128.71 166.307 128.799C169.405 135.425 172.503 142.036 175.57 148.662C176.001 149.612 176.633 149.984 177.697 149.984C196.839 149.969 215.966 149.969 235.108 149.969C236.418 149.969 236.572 149.805 236.28 148.602C234.892 143.031 233.505 137.46 232.103 131.889C231.856 130.924 231.563 129.958 231.271 128.918C230.546 129.631 229.837 130.166 228.974 130.448C226.724 131.191 224.659 130.909 222.871 129.349C220.22 127.046 221.191 123.035 224.674 121.728C226.123 121.193 227.556 121.252 229.097 121.743C228.928 121.193 228.774 120.747 228.666 120.302C228.589 119.975 228.404 119.871 228.08 119.871C226.046 119.886 224.027 119.886 221.992 119.871C221.545 119.871 221.283 120.049 221.129 120.465C220.713 121.55 220.266 122.634 219.835 123.719C217.492 129.542 215.165 135.366 212.822 141.204C212.729 141.427 212.729 141.724 212.344 141.828C213.623 137.208 214.872 132.632 216.136 128.056C216.675 126.095 216.675 126.095 214.563 126.081C213.916 126.081 213.608 126.289 213.423 126.898C212.236 130.76 211.003 134.608 209.786 138.456C209.678 138.812 209.585 139.213 209.092 139.228C208.614 139.228 208.491 138.857 208.337 138.5C206.688 134.608 205.039 130.731 203.405 126.838C203.22 126.378 202.989 126.081 202.418 126.095C200.954 126.125 199.49 126.095 198.026 126.11C197.147 126.125 196.947 126.422 197.24 127.239C198.457 130.641 199.69 134.043 200.908 137.46C201.432 138.946 201.956 140.431 202.495 141.976C202.203 141.902 202.187 141.739 202.126 141.605C198.796 134.652 195.467 127.7 192.154 120.733C191.861 120.109 191.491 119.856 190.767 119.871C182.012 119.901 173.243 119.871 164.488 119.901C163.04 119.901 161.899 119.217 160.635 118.772C160.373 118.682 160.234 118.445 160.296 118.177C160.358 117.88 160.543 117.687 160.866 117.657C161.098 117.642 161.329 117.643 161.56 117.643C164.288 117.643 167.001 117.643 169.729 117.643C177.25 117.643 184.787 117.657 192.308 117.628C193.14 117.628 193.572 117.895 193.849 118.608C194.234 119.574 194.758 120.495 195.144 121.46C195.375 122.055 195.76 122.218 196.377 122.218C198.766 122.203 201.155 122.218 203.544 122.203C204.052 122.203 204.33 122.367 204.484 122.857C205.069 124.744 205.701 126.63 206.318 128.517C206.95 130.448 207.566 132.38 208.183 134.311C208.291 134.623 208.429 134.95 208.83 134.95C209.292 134.964 209.416 134.623 209.508 134.281C209.524 134.207 209.539 134.132 209.554 134.058C210.572 130.389 211.604 126.719 212.606 123.035C212.776 122.396 213.084 122.144 213.777 122.174C214.933 122.233 216.089 122.174 217.245 122.203C217.831 122.218 218.139 121.995 218.309 121.46C218.617 120.45 219.002 119.44 219.295 118.43C219.48 117.836 219.819 117.613 220.466 117.628C222.593 117.657 224.736 117.643 226.863 117.643C227.078 117.643 227.387 117.761 227.51 117.568C227.664 117.331 227.371 117.123 227.248 116.929C225.167 113.795 222.162 112.146 218.324 112.131C199.706 112.086 181.072 112.146 162.454 112.086C158.94 112.072 155.503 112.473 152.081 113.097C147.365 113.943 142.649 114.731 137.933 115.533C132.477 116.469 127.036 117.39 121.58 118.311C119.206 118.712 116.833 119.128 114.459 119.514C114.305 119.544 114.074 119.648 114.012 119.41C113.966 119.217 114.074 119.024 114.305 118.95C114.475 118.905 114.644 118.861 114.829 118.816C116.586 118.46 118.343 118.103 120.085 117.732C130.997 115.459 141.909 113.186 152.821 110.928C154.778 110.527 156.69 109.888 158.709 109.858C163.132 109.784 167.54 109.769 171.963 109.724C185.804 109.591 199.644 109.442 213.485 109.308C215.118 109.294 215.689 108.61 215.349 107.035C214.687 104.035 214.024 101.049 213.392 98.0476C212.699 94.7348 210.942 92.1796 207.597 90.9317C205.023 89.9661 202.388 89.1341 199.675 88.5547C197.841 88.1536 195.976 87.7525 194.127 88.2873C193.017 88.5993 192.015 88.6142 190.89 88.3468C187.576 87.5594 184.263 87.9754 180.964 88.5845C177.574 89.2233 174.198 90.0255 170.746 90.3226C168.85 90.486 166.97 90.6197 165.089 90.9465C160.62 91.7042 156.412 93.2789 152.235 94.913C147.334 96.8295 142.849 99.4589 138.441 102.207C133.047 105.58 127.545 108.714 121.118 109.977C119.299 110.333 117.527 110.883 115.723 111.344C115.646 110.794 115.924 110.616 116.324 110.497C117.28 110.215 118.22 109.903 119.176 109.605C122.458 108.58 125.788 107.659 129.04 106.53C133.309 105.03 137.023 102.594 140.553 99.9046C146.04 95.745 152.004 92.5955 158.801 90.8277C166.893 88.733 175.046 87.1137 183.384 86.3858C188.871 85.9104 194.358 85.7024 199.829 86.4304C203.944 86.98 207.751 88.3022 210.988 90.8723C213.145 92.5807 214.872 94.6011 215.488 97.3346C216.32 101.004 217.184 104.658 218.031 108.328C218.262 109.308 218.709 109.784 219.634 109.873C222.794 110.185 225.553 111.388 227.988 113.319C230.407 115.399 232.195 117.925 233.444 120.792C234.106 122.307 234.399 123.956 234.785 125.561C235.401 128.175 236.002 130.79 236.603 133.405C236.65 133.568 236.65 133.746 236.819 133.85C236.85 135.024 237.266 136.123 237.513 137.252C238.453 141.382 239.424 145.497 240.333 149.627C240.518 150.489 240.888 151.172 241.659 151.603C243.015 152.375 243.061 153.326 242.614 154.723C240.595 160.962 238.715 167.246 236.819 173.53C236.665 174.065 236.465 174.288 235.848 174.258C234.646 174.214 233.459 174.243 232.072 174.243C233.644 175.313 235.077 176.249 236.465 177.229C241.057 180.468 245.45 183.914 249.103 188.148C251.261 190.659 253.11 193.348 253.804 196.631C254.174 198.369 254.05 200.063 253.203 201.682C252.848 201.623 252.786 201.311 252.648 201.103C247.007 192.709 240.179 185.341 232.149 179.012C230.038 177.348 227.834 175.833 225.46 174.54C225.152 174.362 224.828 174.243 224.458 174.243C214.086 174.258 203.713 174.258 193.325 174.258C193.233 174.258 193.125 174.273 192.878 174.288C194.096 175.105 195.221 175.848 196.33 176.605C201.124 179.903 205.717 183.439 209.554 187.777C211.774 190.302 213.716 192.991 214.502 196.304C214.949 198.161 214.887 199.974 213.901 201.801C213.192 200.791 212.56 199.825 211.882 198.874C206.071 190.808 199.259 183.677 191.167 177.69C189.657 176.576 188.069 175.565 186.436 174.644C185.958 174.377 185.48 174.228 184.91 174.243C183.831 174.273 182.752 174.228 181.673 174.258C181.288 174.273 181.103 174.139 181.041 173.798C180.702 171.807 179.423 170.633 177.651 169.579C170.237 165.152 162.962 160.516 155.595 156.015C146.132 150.221 136.453 144.784 126.25 140.283C122.69 138.708 119.068 137.267 115.369 136.019C115.184 135.945 115.03 135.871 114.845 135.915Z" fill="white"/>
<path d="M114.024 129.896C126.463 130.96 138.153 134.209 148.774 140.534C154.153 143.739 158.982 147.592 163.337 151.962C164.789 153.413 166.149 154.923 167.57 156.403C167.921 156.763 168.212 157.151 167.799 157.596C167.402 158.042 166.943 157.841 166.5 157.582C160.174 153.83 153.756 150.222 147.2 146.844C137.267 141.727 127.136 137.041 116.378 133.634C115.736 133.433 115.109 133.131 114.406 133.102C114.009 132.053 113.963 130.975 114.024 129.896Z" fill="white"/>
<path d="M114.017 124.217C124.047 124.018 134.077 123.727 144.106 124.048C148.702 124.186 153.297 124.401 157.8 125.412C158.855 125.642 159.88 125.979 160.874 126.408C163.808 127.633 165.081 130.1 165.951 132.888C166.183 133.638 165.593 134.067 164.708 133.822C161.712 132.98 158.685 132.214 155.657 131.509C149.633 130.115 143.547 128.981 137.43 128.001C131.515 127.051 125.584 126.285 119.638 125.611C117.759 125.396 115.881 125.259 114.002 125.075C114.017 124.799 114.017 124.508 114.017 124.217Z" fill="white"/>
<path d="M234 158.223C232.719 159.267 232.101 160.633 231.468 161.95C230.681 163.572 230.002 165.243 229.616 167.026C229.493 167.556 229.184 167.862 228.644 167.846C228.258 167.846 227.872 167.846 227.486 167.846C216.743 167.846 206 167.846 195.257 167.846C193.976 167.846 193.976 167.846 193.636 166.56C192.957 164.086 191.799 161.87 190.379 159.781C190.102 159.364 189.855 158.994 190.102 158.464C190.364 157.918 190.842 157.982 191.305 157.982C198.884 157.95 206.478 157.966 214.057 157.886C219.66 157.821 225.263 157.886 230.866 157.966C231.87 157.998 232.873 158.062 234 158.223Z" fill="white"/>
<path d="M181.997 107.926C178.626 107.926 175.27 107.926 171.899 107.926C170.411 107.926 169.849 107.273 170.031 105.708C170.487 101.909 170.957 98.1255 171.443 94.3424C171.61 93.0379 171.929 92.7118 173.175 92.4835C177.928 91.6356 182.696 90.8039 187.449 89.9723C187.859 89.9071 188.254 89.9886 188.633 90.1354C189.681 90.5267 190.729 90.9344 191.777 91.3257C192.506 91.603 192.855 92.1737 192.916 92.9727C193.235 96.9189 193.553 100.865 193.872 104.811C193.903 105.137 193.948 105.463 193.979 105.79C194.115 107.176 193.523 107.909 192.232 107.909C188.831 107.926 185.414 107.926 181.997 107.926Z" fill="white"/>
<path d="M205.963 107.919C203.897 107.919 201.848 107.934 199.782 107.919C198.664 107.904 198.071 107.42 197.936 106.466C197.309 102.43 196.666 98.394 196.022 94.358C195.785 92.8316 197.682 91.5108 199.325 92.0831C203.101 93.404 206.878 94.7396 210.671 96.0605C211.467 96.3393 211.84 96.8236 212.009 97.5281C212.653 100.375 213.313 103.223 213.957 106.07C214.194 107.127 213.482 107.904 212.229 107.919C210.146 107.934 208.046 107.919 205.963 107.919Z" fill="white"/>
<path d="M163.529 107.919C162.707 107.919 161.885 107.934 161.063 107.919C160.192 107.905 159.88 107.585 160.044 106.829C160.8 103.225 161.589 99.6206 162.329 96.0017C162.428 95.5221 162.674 95.2314 163.168 95.0279C164.992 94.3012 166.883 93.8798 168.889 93.9524C169.875 93.996 170.138 94.2431 169.941 95.0715C169.02 99.0974 168.083 103.109 167.163 107.134C167.031 107.687 166.686 107.905 166.077 107.905C165.223 107.905 164.384 107.905 163.529 107.919C163.529 107.905 163.529 107.919 163.529 107.919Z" fill="white"/>
<path d="M183.934 121.919C187.222 121.935 189.646 123.803 189.968 126.614C190.154 128.137 189.459 129.393 188.256 130.429C186.07 132.329 182.087 132.391 179.883 130.555C178.341 129.267 177.646 127.697 178.172 125.782C178.714 123.788 180.239 122.673 182.273 122.108C182.833 121.966 183.426 121.872 183.934 121.919Z" fill="white"/>
<path d="M155.998 103.845C156.055 102.334 156.111 100.896 156.641 99.5027C157.246 97.8888 158.361 96.5684 160.554 96.0402C161.783 95.7468 162.217 96.1136 161.896 97.0672C160.951 99.8695 160.043 102.672 159.382 105.533C159.231 106.178 159.06 106.824 159.098 107.484C159.117 107.851 158.985 107.939 158.512 107.924C157.359 107.88 156.735 107.543 156.357 106.662C155.941 105.723 156.017 104.755 155.998 103.845Z" fill="white"/>
<path d="M126 109.833C134.954 108.023 143.893 106.212 152.848 104.402C153.466 104.273 154.068 104.145 154.686 104.016C155.225 103.901 155.795 103.811 155.97 104.389C156.128 104.954 155.637 105.108 155.05 105.198C152.515 105.596 149.995 106.02 147.475 106.443C141.278 107.458 135.097 108.459 128.9 109.474C127.949 109.628 126.998 109.769 126.048 109.923C126.032 109.897 126.016 109.859 126 109.833Z" fill="white"/>
</svg>
