<svg width="18" height="18" viewBox="0 0 18 18" fill="none" xmlns="http://www.w3.org/2000/svg">
<path fill-rule="evenodd" clip-rule="evenodd" d="M16.4008 4.58526C16.4658 4.79546 16.5007 5.01881 16.5007 5.25034V12.7503C16.5007 13.993 15.4934 15.0003 14.2507 15.0003H3.75073C2.50809 15.0003 1.50073 13.993 1.50073 12.7503V5.25034C1.50073 4.91468 1.57423 4.59619 1.70601 4.31009L8.35058 10.2902C8.72286 10.6252 9.28558 10.6332 9.66719 10.3088L16.4008 4.58526ZM16.0664 3.92128C16.0568 3.90813 16.047 3.89509 16.0371 3.88215L16.0664 3.92128ZM15.1593 3.19132L9.00073 8.62534L2.84218 3.19132C3.12004 3.06853 3.42742 3.00034 3.75073 3.00034H14.2507C14.574 3.00034 14.8814 3.06853 15.1593 3.19132Z" fill="#38547C"/>
</svg>
