<svg width="18" height="18" viewBox="0 0 18 18" fill="none" xmlns="http://www.w3.org/2000/svg">
<path fill-rule="evenodd" clip-rule="evenodd" d="M5.25 12H12.75C14.8211 12 16.5 13.6789 16.5 15.75C16.5 16.1642 16.1642 16.5 15.75 16.5C15.3654 16.5 15.0484 16.2105 15.005 15.8375L14.9962 15.6178C14.9303 14.4804 14.0196 13.5697 12.8822 13.5038L12.75 13.5H5.25C4.00736 13.5 3 14.5074 3 15.75C3 16.1642 2.66421 16.5 2.25 16.5C1.83579 16.5 1.5 16.1642 1.5 15.75C1.5 13.7334 3.09173 12.0886 5.08733 12.0035L5.25 12H12.75H5.25ZM9 1.5C11.4853 1.5 13.5 3.51472 13.5 6C13.5 8.48528 11.4853 10.5 9 10.5C6.51472 10.5 4.5 8.48528 4.5 6C4.5 3.51472 6.51472 1.5 9 1.5ZM9 3C7.34315 3 6 4.34315 6 6C6 7.65685 7.34315 9 9 9C10.6569 9 12 7.65685 12 6C12 4.34315 10.6569 3 9 3Z" fill="#38547C"/>
<path d="M15.75 16.5H2.25V15L3.375 13.125L10.125 12.75L14.625 13.5L15.75 16.5Z" fill="#38547C"/>
<path d="M6 3.75L8.625 2.25L9.75 1.875L12 4.125L12.375 6.75L12 8.625L9.75 9.375H7.125L5.625 7.875L5.25 5.625L6 3.75Z" fill="#38547C"/>
</svg>
