<svg width="367" height="144" viewBox="0 0 367 144" fill="none" xmlns="http://www.w3.org/2000/svg">
<g filter="url(#filter0_d_569_4095)">
<path d="M22.0739 76.2738C22.3845 77.5127 22.6815 78.7382 23.0056 80.0176C21.1556 80.0176 19.3055 80.0849 17.4689 79.9907C16.2671 79.9233 15.4433 78.9941 15.2138 77.7417C15.1192 77.2165 15.0247 76.6778 14.9437 76.1526C14.7546 74.9136 14.0389 74.1595 12.8505 73.7958C10.5548 73.109 8.25912 72.3953 5.96342 71.695C4.78856 71.3314 4.07284 70.4426 4.03233 69.2305C3.99181 67.9916 3.99181 66.7661 4.01882 65.5271C4.04583 64.3285 4.74805 63.4128 5.93641 63.0492C8.24562 62.322 10.5683 61.6217 12.891 60.9214C14.0929 60.5578 14.7546 59.7767 14.9572 58.5377C15.6054 54.4034 16.7397 50.4037 18.1982 46.4848C18.5763 45.4613 18.3332 44.5455 17.604 43.751C15.997 42.0272 14.39 40.3034 12.7695 38.5796C11.7027 37.4484 11.5271 36.3845 12.2699 35.0378C12.783 34.122 13.2962 33.2063 13.8498 32.304C14.6331 31.0112 15.6054 30.6071 17.1043 30.9573C19.3865 31.4825 21.6552 32.0347 23.9239 32.5329C25.1123 32.8023 26.1251 32.5195 26.9353 31.5364C29.5146 28.3582 32.4045 25.4628 35.605 22.904C36.6313 22.0825 36.9014 21.059 36.6178 19.847C36.0912 17.5576 35.5375 15.2682 35.0108 12.9788C34.7002 11.6456 35.0918 10.649 36.2532 9.92182C37.239 9.30234 38.2653 8.72326 39.2916 8.17111C40.4935 7.52469 41.5738 7.69976 42.5596 8.61552C44.3017 10.2316 46.0572 11.8476 47.7857 13.4906C48.6635 14.3121 49.6493 14.5275 50.7566 14.1101C54.7134 12.6152 58.7916 11.5379 62.9644 10.8645C64.0447 10.6894 64.7334 9.96222 65.044 8.89833C65.7327 6.60894 66.4485 4.31954 67.1507 2.03015C67.5558 0.710385 68.4606 0.0370343 69.838 0.0101003C70.9588 -0.00336675 72.0932 -0.00336675 73.214 0.0101003C74.5644 0.0370343 75.4557 0.710385 75.8473 1.98975C76.5631 4.29261 77.2653 6.60894 77.981 8.92526C78.3186 10.043 79.0613 10.7164 80.2092 10.9049C84.2064 11.5648 88.1226 12.521 91.9038 14.0023C93.2272 14.5275 94.3615 14.3659 95.4148 13.329C96.9813 11.7937 98.6288 10.3258 100.236 8.81753C101.492 7.63243 102.477 7.48429 104.003 8.31925C104.976 8.84446 105.921 9.39661 106.853 9.97569C107.947 10.676 108.311 11.6591 108.014 12.9384C107.474 15.2548 106.92 17.5576 106.394 19.8739C106.11 21.0725 106.421 22.096 107.393 22.8771C110.539 25.4089 113.402 28.2235 115.928 31.3613C116.846 32.506 117.94 32.8292 119.331 32.4791C121.599 31.9134 123.868 31.4017 126.15 30.8765C127.258 30.6206 128.365 31.0381 128.973 31.9943C129.648 33.0581 130.283 34.1355 130.863 35.2533C131.484 36.4114 131.282 37.4888 130.377 38.4584C128.77 40.1822 127.163 41.9194 125.529 43.6163C124.651 44.532 124.449 45.5555 124.881 46.7002C126.393 50.6057 127.433 54.6188 128.095 58.7532C128.27 59.871 129.013 60.5578 130.093 60.8945C132.416 61.5947 134.739 62.295 137.048 63.0222C138.25 63.3993 138.952 64.3016 138.993 65.554C139.02 66.7661 139.02 67.9781 138.993 69.1901C138.966 70.4156 138.25 71.3045 137.008 71.695C134.968 72.3279 132.929 72.934 130.89 73.5534C130.201 73.7555 129.513 73.944 128.919 74.3884C128.77 74.2941 128.757 74.1325 128.73 73.9844C128.203 71.6142 127.663 69.244 127.136 66.8738C126.812 65.4194 126.542 63.9245 125.961 62.5509C124.867 59.9652 123.301 57.6758 121.181 55.777C121.181 55.6693 121.194 55.5481 121.167 55.4403C118.98 45.0034 114.105 36.0344 106.313 28.7083C97.427 20.3588 86.8667 15.7665 74.686 14.945C66.543 14.4063 58.7241 15.7934 51.2563 19.039C45.7601 21.4226 40.8581 24.6951 36.5233 28.8295C29.9198 35.1455 25.3419 42.6736 22.8031 51.4406C21.5067 55.9386 20.8315 60.5443 20.8855 65.2308C20.8855 65.4867 20.8855 65.7291 20.8855 65.985C20.8045 67.197 20.9935 68.409 21.0205 69.6211C20.98 70.6311 21.007 71.6411 21.3716 72.5973C21.5202 73.54 21.6822 74.4961 21.8308 75.4388C21.5337 75.8428 21.7633 76.0718 22.0739 76.2738Z" fill="white"/>
<path d="M22.0738 76.2736C21.7632 76.0582 21.5336 75.8427 21.8577 75.4656C21.9927 75.6676 22.2088 75.708 22.4249 75.7753C24.1129 76.314 25.8009 76.8527 27.4754 77.4183C37.1984 80.7581 46.4757 85.0945 55.4695 90.0773C60.358 92.7842 65.152 95.6527 69.8244 98.7366C72.0121 100.178 74.1727 101.624 76.3604 103.065V103.06C76.1848 102.44 75.7392 101.996 75.3881 101.484C72.5252 97.2822 69.1762 93.471 65.6111 89.8484C64.6253 88.8518 63.734 87.761 62.9508 86.8856C63.4774 86.953 64.2742 87.2896 65.0574 87.6667C67.6637 88.9191 69.8514 90.7372 71.8905 92.7573C75.8202 96.6223 79.0747 101.026 81.9781 105.686C82.1807 106.009 82.3697 106.143 82.7613 106.143C97.1162 106.13 111.485 106.13 125.84 106.143C126.245 106.143 126.407 106.009 126.542 105.632C127.825 102.076 129.094 98.5077 130.471 94.9793C130.85 93.9962 130.809 93.269 130.188 92.4206C129.783 91.8684 129.418 91.6126 128.729 91.6126C112.457 91.626 96.1845 91.626 79.912 91.6395C79.0072 91.6395 78.197 91.4779 77.4137 91.0065C76.5089 90.4544 75.5771 89.9561 74.6319 89.4982C73.9837 89.1885 73.6461 88.7037 73.43 88.0573C71.958 83.8556 70.4726 79.6539 68.9871 75.4521C68.2984 73.5129 67.6232 71.5602 66.948 69.6209C67.056 69.6748 67.1236 69.7421 67.1641 69.8229C69.8784 75.8292 72.5927 81.822 75.2801 87.8283C75.6582 88.6902 76.2118 89.0269 77.1436 89.0269C93.9158 89.0134 110.674 89.0134 127.447 89.0134C128.594 89.0134 128.729 88.8653 128.473 87.7745C127.257 82.7243 126.042 77.6742 124.813 72.6241C124.597 71.7487 124.341 70.8734 124.084 69.9307C123.449 70.5771 122.828 71.0619 122.072 71.3178C120.1 71.9911 118.291 71.7352 116.724 70.3212C114.402 68.2338 115.252 64.5977 118.304 63.4126C119.574 62.9278 120.83 62.9817 122.18 63.4261C122.031 62.9278 121.896 62.5238 121.802 62.1198C121.734 61.8235 121.572 61.7293 121.289 61.7293C119.506 61.7427 117.737 61.7427 115.955 61.7293C115.563 61.7293 115.333 61.8909 115.198 62.2679C114.834 63.251 114.442 64.2341 114.064 65.2172C112.011 70.4963 109.972 75.7753 107.92 81.0679C107.839 81.2699 107.839 81.5392 107.501 81.6335C108.622 77.4453 109.716 73.2974 110.823 69.1496C111.296 67.3719 111.296 67.3719 109.446 67.3585C108.878 67.3585 108.608 67.547 108.446 68.0992C107.406 71.6006 106.326 75.0885 105.259 78.5765C105.165 78.8997 105.084 79.2633 104.652 79.2768C104.233 79.2768 104.125 78.9401 103.99 78.6169C102.545 75.0885 101.1 71.5736 99.6685 68.0453C99.5065 67.6278 99.3039 67.3585 98.8043 67.3719C97.5214 67.3989 96.2385 67.3719 94.9556 67.3854C94.1858 67.3989 94.0103 67.6682 94.2669 68.4089C95.3337 71.4928 96.414 74.5768 97.4809 77.6742C97.94 79.0209 98.3991 80.3676 98.8718 81.7682C98.6152 81.7008 98.6017 81.5527 98.5477 81.4315C95.6308 75.1289 92.7139 68.8264 89.8105 62.5103C89.5539 61.9447 89.2298 61.7158 88.5951 61.7293C80.9248 61.7562 73.2409 61.7293 65.5706 61.7562C64.3012 61.7562 63.3019 61.1367 62.1945 60.7327C61.965 60.6519 61.8434 60.4364 61.8975 60.194C61.9515 59.9247 62.1135 59.7496 62.3971 59.7227C62.5997 59.7092 62.8022 59.7092 63.0048 59.7092C65.395 59.7092 67.7718 59.7092 70.162 59.7092C76.752 59.7092 83.3555 59.7227 89.9456 59.6957C90.6748 59.6957 91.0529 59.9381 91.296 60.5846C91.6336 61.4599 92.0927 62.2949 92.4303 63.1702C92.6329 63.7089 92.9705 63.857 93.5106 63.857C95.6038 63.8436 97.6969 63.857 99.7901 63.8436C100.236 63.8436 100.479 63.9917 100.614 64.4361C101.127 66.1464 101.681 67.8567 102.221 69.5671C102.774 71.3178 103.315 73.0685 103.855 74.8192C103.949 75.102 104.071 75.3983 104.422 75.3983C104.827 75.4117 104.935 75.102 105.016 74.7923C105.03 74.7249 105.043 74.6576 105.057 74.5903C105.948 71.2639 106.853 67.9375 107.731 64.5977C107.879 64.0186 108.149 63.7897 108.757 63.8166C109.77 63.8705 110.782 63.8166 111.795 63.8436C112.308 63.857 112.578 63.655 112.727 63.1702C112.997 62.2545 113.335 61.3387 113.591 60.423C113.753 59.8843 114.05 59.6823 114.618 59.6957C116.481 59.7227 118.358 59.7092 120.222 59.7092C120.411 59.7092 120.681 59.8169 120.789 59.6419C120.924 59.4264 120.667 59.2379 120.559 59.0628C118.736 56.2212 116.103 54.7264 112.741 54.7129C96.4275 54.6725 80.101 54.7264 63.788 54.6725C60.7091 54.6591 57.6977 55.0227 54.6998 55.5883C50.5675 56.3559 46.4352 57.0697 42.303 57.7969C37.5225 58.6453 32.7555 59.4803 27.9751 60.3152C25.8954 60.6788 23.8158 61.0559 21.7362 61.406C21.6011 61.433 21.3986 61.5272 21.3445 61.3118C21.304 61.1367 21.3986 60.9616 21.6011 60.8943C21.7497 60.8539 21.8982 60.8135 22.0603 60.7731C23.5997 60.4499 25.1392 60.1267 26.6652 59.79C36.2261 57.7296 45.787 55.6691 55.348 53.6221C57.063 53.2585 58.7375 52.6794 60.5065 52.6525C64.3822 52.5852 68.2444 52.5717 72.1201 52.5313C84.2468 52.4101 96.3735 52.2754 108.5 52.1542C109.932 52.1407 110.431 51.5213 110.134 50.0938C109.554 47.3734 108.973 44.6666 108.419 41.9462C107.812 38.9431 106.272 36.6267 103.342 35.4955C101.086 34.6202 98.7773 33.866 96.4005 33.3408C94.7935 32.9772 93.1595 32.6136 91.539 33.0984C90.5667 33.3812 89.689 33.3947 88.7032 33.1523C85.7998 32.4385 82.8964 32.8156 80.0065 33.3677C77.0356 33.9468 74.0782 34.674 71.0533 34.9434C69.3923 35.0915 67.7447 35.2127 66.0972 35.509C62.181 36.1958 58.4944 37.6233 54.8348 39.1047C50.5405 40.8419 46.6108 43.2256 42.7486 45.717C38.0221 48.774 33.2012 51.6155 27.5699 52.7602C25.9765 53.0834 24.4235 53.5817 22.8435 53.9992C22.776 53.5009 23.019 53.3393 23.3702 53.2316C24.2074 52.9757 25.0312 52.6929 25.8684 52.4235C28.7448 51.4943 31.6617 50.6594 34.5111 49.6359C38.2517 48.2757 41.5062 46.0671 44.5987 43.6296C49.4061 39.8588 54.6322 37.0038 60.5876 35.4012C67.6772 33.5024 74.8209 32.0345 82.1267 31.3746C86.9341 30.9437 91.7416 30.7551 96.5356 31.415C100.141 31.9133 103.477 33.1119 106.313 35.4416C108.203 36.9904 109.716 38.8219 110.256 41.2998C110.985 44.6261 111.741 47.939 112.484 51.2654C112.687 52.1542 113.078 52.5852 113.888 52.666C116.657 52.9488 119.074 54.0396 121.208 55.7903C123.328 57.6757 124.894 59.9651 125.988 62.5642C126.569 63.9378 126.825 65.4327 127.163 66.8871C127.703 69.2573 128.23 71.6275 128.756 73.9977C128.797 74.1458 128.797 74.3074 128.945 74.4017C128.973 75.4656 129.337 76.4622 129.553 77.4857C130.377 81.2295 131.228 84.9598 132.024 88.7037C132.186 89.4848 132.511 90.1042 133.186 90.4948C134.374 91.1951 134.415 92.057 134.023 93.3229C132.254 98.979 130.607 104.676 128.945 110.372C128.81 110.857 128.635 111.059 128.095 111.032C127.041 110.992 126.002 111.019 124.786 111.019C126.164 111.988 127.42 112.837 128.635 113.725C132.659 116.661 136.508 119.786 139.708 123.624C141.599 125.9 143.219 128.337 143.827 131.313C144.151 132.889 144.043 134.424 143.3 135.892C142.99 135.838 142.936 135.555 142.814 135.367C137.872 127.758 131.889 121.078 124.854 115.341C123.004 113.833 121.073 112.459 118.993 111.288C118.723 111.126 118.439 111.019 118.115 111.019C109.027 111.032 99.9386 111.032 90.8368 111.032C90.7558 111.032 90.6613 111.045 90.4452 111.059C91.512 111.8 92.4978 112.473 93.4701 113.16C97.6699 116.149 101.694 119.355 105.057 123.287C107.001 125.576 108.703 128.014 109.392 131.017C109.783 132.7 109.729 134.343 108.865 136C108.244 135.084 107.69 134.209 107.096 133.347C102.005 126.034 96.0359 119.57 88.9462 114.143C87.6228 113.133 86.2319 112.217 84.8005 111.382C84.3818 111.14 83.9632 111.005 83.4636 111.019C82.5183 111.045 81.573 111.005 80.6277 111.032C80.2901 111.045 80.128 110.924 80.074 110.615C79.7769 108.81 78.6561 107.746 77.1031 106.79C70.6076 102.777 64.2337 98.575 57.7787 94.4945C49.4872 89.2424 41.0066 84.3134 32.0668 80.2329C28.9474 78.8054 25.7739 77.4991 22.5329 76.3679C22.3709 76.3006 22.2358 76.2332 22.0738 76.2736Z" fill="white"/>
<path d="M21.0476 69.6479C32.04 70.6445 42.3706 73.6881 51.756 79.6135C56.5095 82.6167 60.7768 86.2258 64.6254 90.3198C65.9083 91.68 67.1102 93.094 68.3661 94.4811C68.6767 94.8178 68.9333 95.1814 68.5687 95.5989C68.2175 96.0164 67.8124 95.8278 67.4208 95.5854C61.8301 92.0705 56.1584 88.6903 50.3651 85.5256C41.5874 80.7313 32.6341 76.3411 23.1272 73.1494C22.5601 72.9608 22.0064 72.678 21.3852 72.6511C21.0341 71.668 20.9936 70.658 21.0476 69.6479Z" fill="white"/>
<path d="M20.8989 65.2583C29.6226 65.0833 38.3462 64.8274 47.0699 65.1102C51.0671 65.2314 55.0643 65.4199 58.9805 66.3088C59.8988 66.5108 60.7901 66.807 61.6544 67.1841C64.2066 68.2615 65.314 70.4297 66.0702 72.8807C66.2728 73.5406 65.7596 73.9176 64.9899 73.7022C62.3836 72.9615 59.7503 72.2881 57.117 71.6686C51.8774 70.4431 46.5837 69.4466 41.2631 68.5847C36.118 67.7497 30.9595 67.0764 25.7874 66.4838C24.1534 66.2953 22.5194 66.1741 20.8854 66.0125C20.8989 65.7701 20.8989 65.5142 20.8989 65.2583Z" fill="white"/>
<path d="M125.705 95.8678C124.584 96.7431 124.044 97.8878 123.49 98.9921C122.801 100.352 122.207 101.753 121.869 103.248C121.761 103.692 121.491 103.948 121.019 103.935C120.681 103.935 120.343 103.935 120.006 103.935C110.607 103.935 101.208 103.935 91.8092 103.935C90.6883 103.935 90.6883 103.935 90.3912 102.857C89.7971 100.783 88.7842 98.9248 87.5419 97.1741C87.2988 96.8239 87.0827 96.5142 87.2988 96.0698C87.5284 95.6119 87.947 95.6658 88.3521 95.6658C94.9826 95.6388 101.627 95.6523 108.257 95.585C113.159 95.5311 118.061 95.585 122.963 95.6523C123.841 95.6792 124.719 95.7331 125.705 95.8678Z" fill="white"/>
<path d="M81.2085 49.905C78.2105 49.905 75.2261 49.905 72.2282 49.905C70.9048 49.905 70.4051 49.3664 70.5672 48.0735C70.9723 44.9357 71.3909 41.8114 71.8231 38.687C71.9716 37.6097 72.2552 37.3403 73.3626 37.1518C77.5893 36.4515 81.8296 35.7647 86.0564 35.0779C86.4211 35.024 86.7722 35.0913 87.1098 35.2125C88.0415 35.5357 88.9733 35.8724 89.9051 36.1956C90.5533 36.4246 90.8639 36.8959 90.9179 37.5558C91.2015 40.8148 91.4851 44.0738 91.7687 47.3328C91.7957 47.6022 91.8362 47.8715 91.8632 48.1409C91.9848 49.2856 91.4581 49.8916 90.3102 49.8916C87.2853 49.905 84.2469 49.905 81.2085 49.905Z" fill="white"/>
<path d="M101.937 49.9055C100.29 49.9055 98.6557 49.919 97.0082 49.9055C96.1169 49.892 95.6442 49.4476 95.5362 48.5722C95.0366 44.8688 94.5234 41.1654 94.0102 37.462C93.8212 36.0614 95.3336 34.8494 96.6435 35.3746C99.655 36.5866 102.666 37.8121 105.691 39.0241C106.326 39.28 106.623 39.7244 106.758 40.3708C107.271 42.9834 107.798 45.596 108.311 48.2086C108.5 49.1783 107.933 49.892 106.934 49.9055C105.273 49.919 103.598 49.9055 101.937 49.9055Z" fill="white"/>
<path d="M65.3004 50.0133C64.6252 50.0133 63.95 50.0267 63.2748 50.0133C62.5591 49.9998 62.3025 49.7035 62.4375 49.0032C63.0587 45.6634 63.7069 42.3236 64.3146 38.9703C64.3956 38.5259 64.5982 38.2566 65.0033 38.068C66.5023 37.3947 68.0553 37.0041 69.7028 37.0715C70.513 37.1119 70.7291 37.3408 70.567 38.1084C69.8108 41.8388 69.0411 45.5557 68.2848 49.286C68.1768 49.7978 67.8932 49.9998 67.3936 49.9998C66.6913 49.9998 66.0026 49.9998 65.3004 50.0133C65.3004 50.0133 65.3004 49.9998 65.3004 50.0133Z" fill="white"/>
<path d="M82.829 63.4671C85.4488 63.4805 87.3799 65.0831 87.6364 67.4937C87.785 68.8 87.2313 69.8773 86.2725 70.7662C84.5305 72.3957 81.357 72.4496 79.6015 70.8739C78.3726 69.7696 77.8189 68.4229 78.2375 66.7799C78.6697 65.0696 79.8851 64.1135 81.5055 63.6287C81.9512 63.5075 82.4238 63.4267 82.829 63.4671Z" fill="white"/>
<path d="M58.5081 46.148C58.5486 44.7609 58.5891 43.4412 58.9672 42.1618C59.3993 40.6804 60.1961 39.4684 61.7626 38.9836C62.6403 38.7143 62.9509 39.0509 62.7213 39.9263C62.0461 42.4985 61.3979 45.0707 60.9253 47.6968C60.8173 48.2893 60.6957 48.8819 60.7227 49.4879C60.7362 49.8245 60.6417 49.9053 60.3041 49.8919C59.4804 49.8515 59.0347 49.5417 58.7646 48.7337C58.4675 47.8718 58.5216 46.983 58.5081 46.148Z" fill="white"/>
<path d="M31.932 52.7473C39.5618 50.8484 47.1782 48.9496 54.808 47.0507C55.3347 46.9161 55.8478 46.7814 56.3745 46.6467C56.8336 46.5255 57.3198 46.4312 57.4683 47.0373C57.6034 47.6298 57.1847 47.7914 56.6851 47.8857C54.5244 48.3032 52.3773 48.7476 50.2301 49.192C44.95 50.2559 39.6834 51.3063 34.4033 52.3702C33.593 52.5318 32.7828 52.6799 31.9725 52.8415C31.959 52.8146 31.9455 52.7742 31.932 52.7473Z" fill="white"/>
<path d="M31.5539 52.9491C31.4999 53.0572 31.4188 53.0977 31.3378 53.0437C31.2973 53.0302 31.2703 52.9897 31.2433 52.9491C31.2028 52.8816 31.2163 52.9221 31.2703 52.9086C31.3648 52.9086 31.4729 52.8141 31.5539 52.9491Z" fill="white"/>
<path d="M66.7861 69.1226C66.8131 69.1766 66.8537 69.2441 66.8807 69.2981C66.7456 69.3386 66.8537 69.2171 66.8266 69.1901C66.7996 69.1766 66.7996 69.1496 66.7861 69.1226Z" fill="white"/>
<path d="M66.786 69.1361L66.7725 69.1226H66.786V69.1361Z" fill="white"/>
</g>
<g filter="url(#filter1_d_569_4095)">
<path d="M169.386 40.18H179.198V58H176.712V41.962H171.872V58H169.386V40.18ZM181.976 40.18H184.462V48.1H185.386L188.576 40.18H191.062L187.542 48.65L191.502 58H189.016L185.408 49.31H184.462V58H181.976V40.18ZM197.768 55.8C197.46 55.844 197.203 55.866 196.998 55.866C195.59 55.866 194.541 55.5213 193.852 54.832C193.162 54.128 192.818 52.9033 192.818 51.158V46.714C192.818 45.0127 193.14 43.7953 193.786 43.062C194.446 42.3287 195.414 41.962 196.69 41.962C197.115 41.962 197.474 41.9767 197.768 42.006V38.574H200.254V42.006C200.635 41.9767 201.009 41.962 201.376 41.962C202.666 41.962 203.634 42.3287 204.28 43.062C204.94 43.7953 205.27 45.0127 205.27 46.714V51.158C205.27 52.8447 204.954 54.0547 204.324 54.788C203.693 55.5067 202.813 55.866 201.684 55.866C201.214 55.866 200.738 55.844 200.254 55.8V58.792H197.768V55.8ZM197.152 54.37C197.386 54.37 197.592 54.3553 197.768 54.326V43.502C197.416 43.4727 197.159 43.458 196.998 43.458C196.499 43.458 196.11 43.5533 195.832 43.744C195.568 43.9347 195.377 44.2647 195.26 44.734C195.142 45.1887 195.084 45.8487 195.084 46.714V51.158C195.084 52.0673 195.135 52.742 195.238 53.182C195.34 53.622 195.531 53.93 195.81 54.106C196.103 54.282 196.55 54.37 197.152 54.37ZM201.068 54.37C201.596 54.37 201.992 54.282 202.256 54.106C202.534 53.93 202.725 53.6147 202.828 53.16C202.945 52.7053 203.004 52.038 203.004 51.158V46.714C203.004 45.8193 202.952 45.152 202.85 44.712C202.747 44.2573 202.556 43.9347 202.278 43.744C201.999 43.5533 201.581 43.458 201.024 43.458C200.804 43.458 200.547 43.4727 200.254 43.502V54.326C200.518 54.3553 200.789 54.37 201.068 54.37ZM213.214 40.18H223.026V58H220.54V41.962H215.7V58H213.214V40.18ZM225.606 45.284H227.96V46.296C228.649 45.504 229.456 45.108 230.38 45.108C231.539 45.108 232.309 45.6067 232.69 46.604C233.086 47.5867 233.284 48.6793 233.284 49.882V52.962C233.284 54.5167 233.042 55.778 232.558 56.746C232.089 57.6993 231.275 58.176 230.116 58.176C229.368 58.176 228.649 57.802 227.96 57.054V62.18H225.606V45.284ZM229.654 56.328C230.197 56.328 230.541 56.0567 230.688 55.514C230.849 54.9567 230.93 54.106 230.93 52.962V49.882C230.93 48.9433 230.842 48.2247 230.666 47.726C230.49 47.2127 230.123 46.956 229.566 46.956C229.023 46.956 228.488 47.176 227.96 47.616V55.756C228.473 56.1373 229.038 56.328 229.654 56.328ZM238.922 58.176C237.573 58.176 236.612 57.78 236.04 56.988C235.483 56.1813 235.204 55.0153 235.204 53.49V49.794C235.204 48.2687 235.483 47.11 236.04 46.318C236.612 45.5113 237.573 45.108 238.922 45.108C240.257 45.108 241.203 45.5113 241.76 46.318C242.332 47.11 242.618 48.2687 242.618 49.794V53.49C242.618 55.0153 242.332 56.1813 241.76 56.988C241.203 57.78 240.257 58.176 238.922 58.176ZM238.922 56.438C239.348 56.438 239.656 56.3133 239.846 56.064C240.037 55.8147 240.154 55.5067 240.198 55.14C240.242 54.7733 240.264 54.2747 240.264 53.644V49.662C240.264 49.0313 240.242 48.5327 240.198 48.166C240.154 47.7847 240.037 47.4693 239.846 47.22C239.656 46.9707 239.348 46.846 238.922 46.846C238.497 46.846 238.182 46.9707 237.976 47.22C237.786 47.4693 237.668 47.7847 237.624 48.166C237.58 48.5327 237.558 49.0313 237.558 49.662V53.644C237.558 54.2747 237.58 54.7733 237.624 55.14C237.668 55.5067 237.786 55.8147 237.976 56.064C238.182 56.3133 238.497 56.438 238.922 56.438ZM244.836 45.284H246.574L249.39 53.094L252.228 45.284H253.966L254.098 58H252.118V50.41L249.764 56.746H249.038L246.684 50.454V58H244.704L244.836 45.284ZM255.469 56.218H256.283C256.796 55.7927 257.221 55.2573 257.559 54.612C257.911 53.9667 258.219 52.9253 258.483 51.488C258.761 50.036 258.959 48.0267 259.077 45.46L259.363 40.18H266.821V56.218H268.537V61.234H266.623L266.425 58H257.581L257.383 61.234H255.469V56.218ZM264.357 56.218V42.028H261.475L261.299 46.054C261.196 48.5327 261.02 50.4393 260.771 51.774C260.521 53.1087 260.235 54.0547 259.913 54.612C259.59 55.1547 259.15 55.69 258.593 56.218H264.357ZM270.208 45.284H272.188V53.842L276.016 45.284H277.864V58H275.928V49.376L272.122 58H270.208V45.284ZM283.254 58.22C282.096 58.22 281.238 57.89 280.68 57.23C280.138 56.5553 279.866 55.514 279.866 54.106H281.868C281.868 54.9567 281.986 55.58 282.22 55.976C282.47 56.3573 282.829 56.548 283.298 56.548C283.826 56.548 284.164 56.3573 284.31 55.976C284.472 55.5947 284.552 55.0007 284.552 54.194C284.552 53.6367 284.472 53.226 284.31 52.962C284.164 52.698 283.914 52.522 283.562 52.434C283.21 52.3313 282.682 52.28 281.978 52.28V50.608C282.976 50.608 283.65 50.4613 284.002 50.168C284.369 49.8747 284.552 49.3613 284.552 48.628C284.552 48.0267 284.428 47.5793 284.178 47.286C283.929 46.9927 283.592 46.846 283.166 46.846C282.682 46.846 282.316 47 282.066 47.308C281.832 47.6013 281.714 48.144 281.714 48.936H279.712C279.712 47.572 280.013 46.5967 280.614 46.01C281.23 45.4087 282.11 45.108 283.254 45.108C284.354 45.108 285.183 45.438 285.74 46.098C286.312 46.758 286.598 47.5573 286.598 48.496C286.598 49.4933 286.386 50.212 285.96 50.652C285.535 51.092 285.036 51.3413 284.464 51.4C284.89 51.488 285.249 51.6127 285.542 51.774C285.836 51.9207 286.085 52.214 286.29 52.654C286.51 53.0793 286.62 53.7027 286.62 54.524C286.62 55.7413 286.342 56.6653 285.784 57.296C285.227 57.912 284.384 58.22 283.254 58.22ZM292.032 58.176C291.05 58.176 290.287 57.9927 289.744 57.626C289.202 57.2447 288.82 56.6873 288.6 55.954C288.38 55.2207 288.27 54.2673 288.27 53.094V50.19C288.27 48.43 288.542 47.1467 289.084 46.34C289.642 45.5187 290.624 45.108 292.032 45.108C293.059 45.108 293.829 45.3207 294.342 45.746C294.87 46.1713 295.215 46.7727 295.376 47.55C295.552 48.3127 295.64 49.3467 295.64 50.652V51.686H290.624V54.238C290.624 55.0153 290.734 55.58 290.954 55.932C291.189 56.2693 291.556 56.438 292.054 56.438C292.553 56.438 292.89 56.2693 293.066 55.932C293.242 55.58 293.33 55.052 293.33 54.348V53.578H295.618V54.062C295.618 55.3967 295.332 56.416 294.76 57.12C294.188 57.824 293.279 58.176 292.032 58.176ZM293.33 50.41V49.266C293.33 48.4007 293.242 47.7847 293.066 47.418C292.905 47.0367 292.553 46.846 292.01 46.846C291.629 46.846 291.336 46.934 291.13 47.11C290.94 47.286 290.808 47.5793 290.734 47.99C290.661 48.386 290.624 48.9653 290.624 49.728V50.41H293.33ZM296.958 56.328C297.545 56.328 297.97 56.174 298.234 55.866C298.513 55.5433 298.703 55.0227 298.806 54.304C298.923 53.5853 299.026 52.4193 299.114 50.806L299.4 45.284H306.066V58H303.712V47.066H301.468L301.27 50.806C301.167 52.8447 300.999 54.37 300.764 55.382C300.529 56.3793 300.141 57.0833 299.598 57.494C299.07 57.9047 298.278 58.11 297.222 58.11H296.958V56.328ZM308.45 45.284H310.804V50.542H311.178C312.395 50.5567 313.341 50.674 314.016 50.894C314.69 51.0993 315.182 51.466 315.49 51.994C315.812 52.522 315.974 53.2773 315.974 54.26C315.974 55.1987 315.812 55.9393 315.49 56.482C315.167 57.01 314.639 57.3987 313.906 57.648C313.187 57.8827 312.197 58 310.936 58H308.45V45.284ZM310.936 56.614C311.698 56.614 312.285 56.548 312.696 56.416C313.121 56.284 313.422 56.0493 313.598 55.712C313.774 55.3747 313.862 54.8833 313.862 54.238C313.862 53.6513 313.781 53.1967 313.62 52.874C313.458 52.5513 313.18 52.3167 312.784 52.17C312.388 52.0233 311.808 51.9427 311.046 51.928H310.804V56.614H310.936ZM322.245 58.198C320.485 58.198 319.245 57.6773 318.527 56.636C317.808 55.58 317.449 54.128 317.449 52.28V45.988C317.449 44.0373 317.801 42.556 318.505 41.544C319.209 40.532 320.455 40.026 322.245 40.026C323.843 40.026 324.987 40.4587 325.677 41.324C326.381 42.1893 326.733 43.4653 326.733 45.152V46.56H324.379V45.306C324.379 44.4847 324.342 43.854 324.269 43.414C324.195 42.974 324.005 42.622 323.697 42.358C323.403 42.094 322.927 41.962 322.267 41.962C321.592 41.962 321.086 42.1087 320.749 42.402C320.426 42.6807 320.213 43.0767 320.111 43.59C320.008 44.0887 319.957 44.7633 319.957 45.614V52.676C319.957 53.5853 320.03 54.2967 320.177 54.81C320.323 55.3233 320.558 55.69 320.881 55.91C321.218 56.13 321.68 56.24 322.267 56.24C322.897 56.24 323.367 56.1007 323.675 55.822C323.983 55.5433 324.173 55.162 324.247 54.678C324.335 54.194 324.379 53.534 324.379 52.698V51.378H326.733V52.698C326.733 54.4727 326.395 55.8367 325.721 56.79C325.061 57.7287 323.902 58.198 322.245 58.198ZM328.903 45.284H331.257V50.63H334.271V45.284H336.625V58H334.271V52.346H331.257V58H328.903V45.284ZM341.289 58.176C340.805 58.176 340.365 58.0367 339.969 57.758C339.587 57.4793 339.287 57.1127 339.067 56.658C338.847 56.2033 338.737 55.7267 338.737 55.228C338.737 54.2307 338.949 53.424 339.375 52.808C339.8 52.1773 340.343 51.6787 341.003 51.312C341.663 50.9453 342.579 50.5273 343.753 50.058V49.156C343.753 48.32 343.665 47.7333 343.489 47.396C343.327 47.044 342.99 46.868 342.477 46.868C341.582 46.868 341.135 47.4693 341.135 48.672V49.31L338.803 49.222C338.832 47.814 339.155 46.78 339.771 46.12C340.387 45.4453 341.34 45.108 342.631 45.108C343.848 45.108 344.728 45.4453 345.271 46.12C345.828 46.78 346.107 47.7847 346.107 49.134V54.942C346.107 55.8953 346.18 56.9147 346.327 58H344.171C344.009 57.164 343.907 56.5407 343.863 56.13C343.687 56.702 343.379 57.186 342.939 57.582C342.513 57.978 341.963 58.176 341.289 58.176ZM342.213 56.152C342.521 56.152 342.821 56.0347 343.115 55.8C343.408 55.5507 343.621 55.316 343.753 55.096V51.488C343.122 51.84 342.631 52.148 342.279 52.412C341.941 52.6613 341.655 52.9547 341.421 53.292C341.201 53.6293 341.091 54.0327 341.091 54.502C341.091 55.03 341.186 55.4407 341.377 55.734C341.567 56.0127 341.846 56.152 342.213 56.152ZM351.866 58.176C350.751 58.176 349.878 57.802 349.248 57.054C348.632 56.2913 348.324 55.1987 348.324 53.776V46.296C348.324 45.1813 348.404 44.2793 348.566 43.59C348.742 42.886 349.006 42.3287 349.358 41.918C349.724 41.5073 350.208 41.1773 350.81 40.928C351.25 40.752 351.932 40.5467 352.856 40.312C353.384 40.18 353.816 40.0627 354.154 39.96C354.506 39.8427 354.865 39.674 355.232 39.454L355.716 41.412C355.393 41.6027 355.048 41.7567 354.682 41.874C354.315 41.9913 353.875 42.1087 353.362 42.226C353.288 42.2407 353.046 42.2993 352.636 42.402C352.225 42.5047 351.858 42.6293 351.536 42.776C351.096 42.996 350.758 43.3187 350.524 43.744C350.304 44.1693 350.194 44.734 350.194 45.438V47.484C350.502 47.1907 350.92 46.9267 351.448 46.692C351.99 46.4573 352.496 46.34 352.966 46.34C353.831 46.34 354.528 46.6993 355.056 47.418C355.598 48.1367 355.87 49.2953 355.87 50.894V53.314C355.87 54.59 355.701 55.5873 355.364 56.306C355.041 57.01 354.586 57.5013 354 57.78C353.428 58.044 352.716 58.176 351.866 58.176ZM352.13 56.438C352.614 56.438 352.958 56.2547 353.164 55.888C353.384 55.5213 353.494 54.9053 353.494 54.04V50.19C353.494 49.3833 353.406 48.8113 353.23 48.474C353.068 48.122 352.782 47.946 352.372 47.946C351.888 47.946 351.323 48.166 350.678 48.606V53.842C350.678 54.7807 350.788 55.448 351.008 55.844C351.228 56.24 351.602 56.438 352.13 56.438Z" fill="white"/>
<path d="M174.146 74.4375C174.146 75 173.967 75.457 173.607 75.8086C173.252 76.1602 172.76 76.3828 172.131 76.4766V76.5234C172.846 76.6211 173.387 76.8457 173.754 77.1973C174.125 77.5488 174.311 78.0078 174.311 78.5742C174.311 79.375 174.012 80 173.414 80.4492C172.816 80.8945 171.973 81.1172 170.883 81.1172C169.887 81.1172 169.07 80.9629 168.434 80.6543V79.7285C168.809 79.9082 169.213 80.0469 169.646 80.1445C170.084 80.2422 170.504 80.291 170.906 80.291C171.68 80.291 172.264 80.1445 172.658 79.8516C173.057 79.5586 173.256 79.1367 173.256 78.5859C173.256 78.0625 173.035 77.666 172.594 77.3965C172.156 77.127 171.502 76.9922 170.631 76.9922H169.354V76.1543H170.578C171.379 76.1543 171.998 76.0117 172.436 75.7266C172.877 75.4375 173.098 75.0352 173.098 74.5195C173.098 74.1016 172.939 73.7676 172.623 73.5176C172.307 73.2676 171.881 73.1426 171.346 73.1426C170.916 73.1426 170.527 73.1914 170.18 73.2891C169.832 73.3867 169.43 73.5801 168.973 73.8691L168.48 73.2012C168.875 72.9082 169.316 72.6875 169.805 72.5391C170.297 72.3867 170.807 72.3105 171.334 72.3105C172.213 72.3105 172.9 72.5039 173.396 72.8906C173.896 73.2734 174.146 73.7891 174.146 74.4375ZM179.953 81L179.76 80.0859H179.713C179.393 80.4883 179.072 80.7617 178.752 80.9062C178.436 81.0469 178.039 81.1172 177.562 81.1172C176.926 81.1172 176.426 80.9531 176.062 80.625C175.703 80.2969 175.523 79.8301 175.523 79.2246C175.523 77.9277 176.561 77.248 178.635 77.1855L179.725 77.1504V76.752C179.725 76.248 179.615 75.877 179.396 75.6387C179.182 75.3965 178.836 75.2754 178.359 75.2754C177.824 75.2754 177.219 75.4395 176.543 75.7676L176.244 75.0234C176.561 74.8516 176.906 74.7168 177.281 74.6191C177.66 74.5215 178.039 74.4727 178.418 74.4727C179.184 74.4727 179.75 74.6426 180.117 74.9824C180.488 75.3223 180.674 75.8672 180.674 76.6172V81H179.953ZM177.756 80.3145C178.361 80.3145 178.836 80.1484 179.18 79.8164C179.527 79.4844 179.701 79.0195 179.701 78.4219V77.8418L178.729 77.8828C177.955 77.9102 177.396 78.0312 177.053 78.2461C176.713 78.457 176.543 78.7871 176.543 79.2363C176.543 79.5879 176.648 79.8555 176.859 80.0391C177.074 80.2227 177.373 80.3145 177.756 80.3145ZM183.656 81H182.684V74.5781H188.074V81H187.09V75.4219H183.656V81ZM194.086 81L193.893 80.0859H193.846C193.525 80.4883 193.205 80.7617 192.885 80.9062C192.568 81.0469 192.172 81.1172 191.695 81.1172C191.059 81.1172 190.559 80.9531 190.195 80.625C189.836 80.2969 189.656 79.8301 189.656 79.2246C189.656 77.9277 190.693 77.248 192.768 77.1855L193.857 77.1504V76.752C193.857 76.248 193.748 75.877 193.529 75.6387C193.314 75.3965 192.969 75.2754 192.492 75.2754C191.957 75.2754 191.352 75.4395 190.676 75.7676L190.377 75.0234C190.693 74.8516 191.039 74.7168 191.414 74.6191C191.793 74.5215 192.172 74.4727 192.551 74.4727C193.316 74.4727 193.883 74.6426 194.25 74.9824C194.621 75.3223 194.807 75.8672 194.807 76.6172V81H194.086ZM191.889 80.3145C192.494 80.3145 192.969 80.1484 193.312 79.8164C193.66 79.4844 193.834 79.0195 193.834 78.4219V77.8418L192.861 77.8828C192.088 77.9102 191.529 78.0312 191.186 78.2461C190.846 78.457 190.676 78.7871 190.676 79.2363C190.676 79.5879 190.781 79.8555 190.992 80.0391C191.207 80.2227 191.506 80.3145 191.889 80.3145ZM199.383 81.1172C198.453 81.1172 197.732 80.832 197.221 80.2617C196.713 79.6875 196.459 78.877 196.459 77.8301C196.459 76.7559 196.717 75.9258 197.232 75.3398C197.752 74.7539 198.49 74.4609 199.447 74.4609C199.756 74.4609 200.064 74.4941 200.373 74.5605C200.682 74.627 200.924 74.7051 201.1 74.7949L200.801 75.6211C200.586 75.5352 200.352 75.4648 200.098 75.4102C199.844 75.3516 199.619 75.3223 199.424 75.3223C198.119 75.3223 197.467 76.1543 197.467 77.8184C197.467 78.6074 197.625 79.2129 197.941 79.6348C198.262 80.0566 198.734 80.2676 199.359 80.2676C199.895 80.2676 200.443 80.1523 201.006 79.9219V80.7832C200.576 81.0059 200.035 81.1172 199.383 81.1172ZM203.508 74.5781V77.2676H207.105V74.5781H208.078V81H207.105V78.1055H203.508V81H202.535V74.5781H203.508ZM211.113 77.2324H212.865C213.682 77.2324 214.285 77.3848 214.676 77.6895C215.07 77.9902 215.268 78.4414 215.268 79.043C215.268 79.6875 215.059 80.1758 214.641 80.5078C214.227 80.8359 213.615 81 212.807 81H210.141V74.5781H211.113V77.2324ZM217.318 81H216.346V74.5781H217.318V81ZM211.113 78.0703V80.1855H212.76C213.791 80.1855 214.307 79.8242 214.307 79.1016C214.307 78.7422 214.188 78.4805 213.949 78.3164C213.711 78.1523 213.305 78.0703 212.73 78.0703H211.113ZM222.1 81.1172C221.15 81.1172 220.4 80.8281 219.85 80.25C219.303 79.6719 219.029 78.8691 219.029 77.8418C219.029 76.8066 219.283 75.9844 219.791 75.375C220.303 74.7656 220.988 74.4609 221.848 74.4609C222.652 74.4609 223.289 74.7266 223.758 75.2578C224.227 75.7852 224.461 76.4824 224.461 77.3496V77.9648H220.037C220.057 78.7188 220.246 79.291 220.605 79.6816C220.969 80.0723 221.479 80.2676 222.135 80.2676C222.826 80.2676 223.51 80.123 224.186 79.834V80.7012C223.842 80.8496 223.516 80.9551 223.207 81.0176C222.902 81.084 222.533 81.1172 222.1 81.1172ZM221.836 75.2754C221.32 75.2754 220.908 75.4434 220.6 75.7793C220.295 76.1152 220.115 76.5801 220.061 77.1738H223.418C223.418 76.5605 223.281 76.0918 223.008 75.7676C222.734 75.4395 222.344 75.2754 221.836 75.2754ZM234.82 83.2207H233.877V81H229.389V83.2207H228.451V80.1621H228.955C229.479 79.4512 229.889 78.6172 230.186 77.6602C230.482 76.7031 230.637 75.6758 230.648 74.5781H233.9V80.1621H234.82V83.2207ZM232.963 80.1621V75.3457H231.521C231.471 76.2129 231.303 77.0918 231.018 77.9824C230.736 78.8691 230.385 79.5957 229.963 80.1621H232.963ZM238.822 81.1172C237.873 81.1172 237.123 80.8281 236.572 80.25C236.025 79.6719 235.752 78.8691 235.752 77.8418C235.752 76.8066 236.006 75.9844 236.514 75.375C237.025 74.7656 237.711 74.4609 238.57 74.4609C239.375 74.4609 240.012 74.7266 240.48 75.2578C240.949 75.7852 241.184 76.4824 241.184 77.3496V77.9648H236.76C236.779 78.7188 236.969 79.291 237.328 79.6816C237.691 80.0723 238.201 80.2676 238.857 80.2676C239.549 80.2676 240.232 80.123 240.908 79.834V80.7012C240.564 80.8496 240.238 80.9551 239.93 81.0176C239.625 81.084 239.256 81.1172 238.822 81.1172ZM238.559 75.2754C238.043 75.2754 237.631 75.4434 237.322 75.7793C237.018 76.1152 236.838 76.5801 236.783 77.1738H240.141C240.141 76.5605 240.004 76.0918 239.73 75.7676C239.457 75.4395 239.066 75.2754 238.559 75.2754ZM247.178 75.4102H245.092V81H244.119V75.4102H242.057V74.5781H247.178V75.4102ZM252.398 81L252.205 80.0859H252.158C251.838 80.4883 251.518 80.7617 251.197 80.9062C250.881 81.0469 250.484 81.1172 250.008 81.1172C249.371 81.1172 248.871 80.9531 248.508 80.625C248.148 80.2969 247.969 79.8301 247.969 79.2246C247.969 77.9277 249.006 77.248 251.08 77.1855L252.17 77.1504V76.752C252.17 76.248 252.061 75.877 251.842 75.6387C251.627 75.3965 251.281 75.2754 250.805 75.2754C250.27 75.2754 249.664 75.4395 248.988 75.7676L248.689 75.0234C249.006 74.8516 249.352 74.7168 249.727 74.6191C250.105 74.5215 250.484 74.4727 250.863 74.4727C251.629 74.4727 252.195 74.6426 252.562 74.9824C252.934 75.3223 253.119 75.8672 253.119 76.6172V81H252.398ZM250.201 80.3145C250.807 80.3145 251.281 80.1484 251.625 79.8164C251.973 79.4844 252.146 79.0195 252.146 78.4219V77.8418L251.174 77.8828C250.4 77.9102 249.842 78.0312 249.498 78.2461C249.158 78.457 248.988 78.7871 248.988 79.2363C248.988 79.5879 249.094 79.8555 249.305 80.0391C249.52 80.2227 249.818 80.3145 250.201 80.3145ZM259.916 81H258.932V75.4102H257.004C256.898 76.8008 256.752 77.9043 256.564 78.7207C256.377 79.5371 256.133 80.1348 255.832 80.5137C255.535 80.8926 255.156 81.082 254.695 81.082C254.484 81.082 254.316 81.0586 254.191 81.0117V80.291C254.277 80.3145 254.375 80.3262 254.484 80.3262C254.934 80.3262 255.291 79.8516 255.557 78.9023C255.822 77.9531 256.023 76.5117 256.16 74.5781H259.916V81ZM262.898 74.5781V78.6504L262.857 79.7168L262.84 80.0508L266.314 74.5781H267.527V81H266.619V77.0742L266.637 76.3008L266.666 75.5391L263.197 81H261.984V74.5781H262.898ZM278.285 83.2207H277.342V81H272.854V83.2207H271.916V80.1621H272.42C272.943 79.4512 273.354 78.6172 273.65 77.6602C273.947 76.7031 274.102 75.6758 274.113 74.5781H277.365V80.1621H278.285V83.2207ZM276.428 80.1621V75.3457H274.986C274.936 76.2129 274.768 77.0918 274.482 77.9824C274.201 78.8691 273.85 79.5957 273.428 80.1621H276.428ZM284.361 81H283.377V75.4102H281.449C281.344 76.8008 281.197 77.9043 281.01 78.7207C280.822 79.5371 280.578 80.1348 280.277 80.5137C279.98 80.8926 279.602 81.082 279.141 81.082C278.93 81.082 278.762 81.0586 278.637 81.0117V80.291C278.723 80.3145 278.82 80.3262 278.93 80.3262C279.379 80.3262 279.736 79.8516 280.002 78.9023C280.268 77.9531 280.469 76.5117 280.605 74.5781H284.361V81ZM286.752 81H285.615L287.461 78.2871C286.965 78.1777 286.584 77.9668 286.318 77.6543C286.057 77.3379 285.926 76.9414 285.926 76.4648C285.926 75.8789 286.123 75.418 286.518 75.082C286.912 74.7461 287.463 74.5781 288.17 74.5781H291.029V81H290.057V78.4336H288.434L286.752 81ZM286.875 76.4766C286.875 77.2188 287.414 77.5898 288.492 77.5898H290.057V75.4219H288.293C287.348 75.4219 286.875 75.7734 286.875 76.4766ZM300.545 75.4102H298.459V81H297.486V75.4102H295.424V74.5781H300.545V75.4102ZM304.529 81.1172C303.58 81.1172 302.83 80.8281 302.279 80.25C301.732 79.6719 301.459 78.8691 301.459 77.8418C301.459 76.8066 301.713 75.9844 302.221 75.375C302.732 74.7656 303.418 74.4609 304.277 74.4609C305.082 74.4609 305.719 74.7266 306.188 75.2578C306.656 75.7852 306.891 76.4824 306.891 77.3496V77.9648H302.467C302.486 78.7188 302.676 79.291 303.035 79.6816C303.398 80.0723 303.908 80.2676 304.564 80.2676C305.256 80.2676 305.939 80.123 306.615 79.834V80.7012C306.271 80.8496 305.945 80.9551 305.637 81.0176C305.332 81.084 304.963 81.1172 304.529 81.1172ZM304.266 75.2754C303.75 75.2754 303.338 75.4434 303.029 75.7793C302.725 76.1152 302.545 76.5801 302.49 77.1738H305.848C305.848 76.5605 305.711 76.0918 305.438 75.7676C305.164 75.4395 304.773 75.2754 304.266 75.2754ZM309.527 81H308.555V74.5781H313.945V81H312.961V75.4219H309.527V81ZM320.795 81H319.811V75.4102H317.883C317.777 76.8008 317.631 77.9043 317.443 78.7207C317.256 79.5371 317.012 80.1348 316.711 80.5137C316.414 80.8926 316.035 81.082 315.574 81.082C315.363 81.082 315.195 81.0586 315.07 81.0117V80.291C315.156 80.3145 315.254 80.3262 315.363 80.3262C315.812 80.3262 316.17 79.8516 316.436 78.9023C316.701 77.9531 316.902 76.5117 317.039 74.5781H320.795V81ZM328.406 77.7832C328.406 78.8301 328.143 79.6484 327.615 80.2383C327.088 80.8242 326.359 81.1172 325.43 81.1172C324.855 81.1172 324.346 80.9824 323.9 80.7129C323.455 80.4434 323.111 80.0566 322.869 79.5527C322.627 79.0488 322.506 78.459 322.506 77.7832C322.506 76.7363 322.768 75.9219 323.291 75.3398C323.814 74.7539 324.541 74.4609 325.471 74.4609C326.369 74.4609 327.082 74.7598 327.609 75.3574C328.141 75.9551 328.406 76.7637 328.406 77.7832ZM323.514 77.7832C323.514 78.6035 323.678 79.2285 324.006 79.6582C324.334 80.0879 324.816 80.3027 325.453 80.3027C326.09 80.3027 326.572 80.0898 326.9 79.6641C327.232 79.2344 327.398 78.6074 327.398 77.7832C327.398 76.9668 327.232 76.3477 326.9 75.9258C326.572 75.5 326.086 75.2871 325.441 75.2871C324.805 75.2871 324.324 75.4961 324 75.9141C323.676 76.332 323.514 76.9551 323.514 77.7832ZM335.326 76.1895C335.326 76.6074 335.205 76.9258 334.963 77.1445C334.725 77.3594 334.389 77.5039 333.955 77.5781V77.6309C334.502 77.7051 334.9 77.8652 335.15 78.1113C335.404 78.3574 335.531 78.6973 335.531 79.1309C335.531 79.7285 335.311 80.1895 334.869 80.5137C334.432 80.8379 333.791 81 332.947 81H330.117V74.5781H332.936C334.529 74.5781 335.326 75.1152 335.326 76.1895ZM334.559 79.0664C334.559 78.7188 334.426 78.4668 334.16 78.3105C333.898 78.1504 333.463 78.0703 332.854 78.0703H331.09V80.1855H332.877C333.998 80.1855 334.559 79.8125 334.559 79.0664ZM334.377 76.2832C334.377 75.9707 334.256 75.75 334.014 75.6211C333.775 75.4883 333.412 75.4219 332.924 75.4219H331.09V77.2324H332.736C333.338 77.2324 333.762 77.1582 334.008 77.0098C334.254 76.8613 334.377 76.6191 334.377 76.2832ZM342.492 77.7832C342.492 78.8301 342.229 79.6484 341.701 80.2383C341.174 80.8242 340.445 81.1172 339.516 81.1172C338.941 81.1172 338.432 80.9824 337.986 80.7129C337.541 80.4434 337.197 80.0566 336.955 79.5527C336.713 79.0488 336.592 78.459 336.592 77.7832C336.592 76.7363 336.854 75.9219 337.377 75.3398C337.9 74.7539 338.627 74.4609 339.557 74.4609C340.455 74.4609 341.168 74.7598 341.695 75.3574C342.227 75.9551 342.492 76.7637 342.492 77.7832ZM337.6 77.7832C337.6 78.6035 337.764 79.2285 338.092 79.6582C338.42 80.0879 338.902 80.3027 339.539 80.3027C340.176 80.3027 340.658 80.0898 340.986 79.6641C341.318 79.2344 341.484 78.6074 341.484 77.7832C341.484 76.9668 341.318 76.3477 340.986 75.9258C340.658 75.5 340.172 75.2871 339.527 75.2871C338.891 75.2871 338.41 75.4961 338.086 75.9141C337.762 76.332 337.6 76.9551 337.6 77.7832ZM345.428 77.2441C346.643 77.2441 347.25 76.9082 347.25 76.2363C347.25 75.6035 346.758 75.2871 345.773 75.2871C345.473 75.2871 345.199 75.3145 344.953 75.3691C344.707 75.4238 344.385 75.5332 343.986 75.6973L343.641 74.9062C344.305 74.6094 345.029 74.4609 345.814 74.4609C346.553 74.4609 347.135 74.6133 347.561 74.918C347.986 75.2188 348.199 75.6309 348.199 76.1543C348.199 76.873 347.799 77.3438 346.998 77.5664V77.6133C347.49 77.7578 347.85 77.9648 348.076 78.2344C348.303 78.5 348.416 78.834 348.416 79.2363C348.416 79.8301 348.176 80.293 347.695 80.625C347.219 80.9531 346.559 81.1172 345.715 81.1172C344.789 81.1172 344.074 80.9785 343.57 80.7012V79.8105C344.285 80.1465 345.008 80.3145 345.738 80.3145C346.301 80.3145 346.725 80.2188 347.01 80.0273C347.299 79.832 347.443 79.5527 347.443 79.1895C347.443 78.4434 346.836 78.0703 345.621 78.0703H344.73V77.2441H345.428ZM355.547 77.7832C355.547 78.8301 355.283 79.6484 354.756 80.2383C354.229 80.8242 353.5 81.1172 352.57 81.1172C351.996 81.1172 351.486 80.9824 351.041 80.7129C350.596 80.4434 350.252 80.0566 350.01 79.5527C349.768 79.0488 349.646 78.459 349.646 77.7832C349.646 76.7363 349.908 75.9219 350.432 75.3398C350.955 74.7539 351.682 74.4609 352.611 74.4609C353.51 74.4609 354.223 74.7598 354.75 75.3574C355.281 75.9551 355.547 76.7637 355.547 77.7832ZM350.654 77.7832C350.654 78.6035 350.818 79.2285 351.146 79.6582C351.475 80.0879 351.957 80.3027 352.594 80.3027C353.23 80.3027 353.713 80.0898 354.041 79.6641C354.373 79.2344 354.539 78.6074 354.539 77.7832C354.539 76.9668 354.373 76.3477 354.041 75.9258C353.713 75.5 353.227 75.2871 352.582 75.2871C351.945 75.2871 351.465 75.4961 351.141 75.9141C350.816 76.332 350.654 76.9551 350.654 77.7832ZM362.467 76.1895C362.467 76.6074 362.346 76.9258 362.104 77.1445C361.865 77.3594 361.529 77.5039 361.096 77.5781V77.6309C361.643 77.7051 362.041 77.8652 362.291 78.1113C362.545 78.3574 362.672 78.6973 362.672 79.1309C362.672 79.7285 362.451 80.1895 362.01 80.5137C361.572 80.8379 360.932 81 360.088 81H357.258V74.5781H360.076C361.67 74.5781 362.467 75.1152 362.467 76.1895ZM361.699 79.0664C361.699 78.7188 361.566 78.4668 361.301 78.3105C361.039 78.1504 360.604 78.0703 359.994 78.0703H358.23V80.1855H360.018C361.139 80.1855 361.699 79.8125 361.699 79.0664ZM361.518 76.2832C361.518 75.9707 361.396 75.75 361.154 75.6211C360.916 75.4883 360.553 75.4219 360.064 75.4219H358.23V77.2324H359.877C360.479 77.2324 360.902 77.1582 361.148 77.0098C361.395 76.8613 361.518 76.6191 361.518 76.2832ZM169.945 92.5781V96.6504L169.904 97.7168L169.887 98.0508L173.361 92.5781H174.574V99H173.666V95.0742L173.684 94.3008L173.713 93.5391L170.244 99H169.031V92.5781H169.945ZM180.668 92.5781V96.6504L180.627 97.7168L180.609 98.0508L184.084 92.5781H185.297V99H184.389V95.0742L184.406 94.3008L184.436 93.5391L180.967 99H179.754V92.5781H180.668ZM188.906 95.7129L186.674 92.5781H187.781L189.475 95.0391L191.162 92.5781H192.258L190.025 95.7129L192.375 99H191.273L189.475 96.3984L187.658 99H186.557L188.906 95.7129ZM199.758 99.1172C199.34 99.1172 198.957 99.041 198.609 98.8887C198.266 98.7324 197.977 98.4941 197.742 98.1738H197.672C197.719 98.5488 197.742 98.9043 197.742 99.2402V101.883H196.77V92.5781H197.561L197.695 93.457H197.742C197.992 93.1055 198.283 92.8516 198.615 92.6953C198.947 92.5391 199.328 92.4609 199.758 92.4609C200.609 92.4609 201.266 92.752 201.727 93.334C202.191 93.916 202.424 94.7324 202.424 95.7832C202.424 96.8379 202.188 97.6582 201.715 98.2441C201.246 98.8262 200.594 99.1172 199.758 99.1172ZM199.617 93.2871C198.961 93.2871 198.486 93.4688 198.193 93.832C197.9 94.1953 197.75 94.7734 197.742 95.5664V95.7832C197.742 96.6855 197.893 97.332 198.193 97.7227C198.494 98.1094 198.977 98.3027 199.641 98.3027C200.195 98.3027 200.629 98.0781 200.941 97.6289C201.258 97.1797 201.416 96.5605 201.416 95.7715C201.416 94.9707 201.258 94.3574 200.941 93.9316C200.629 93.502 200.188 93.2871 199.617 93.2871ZM206.842 99.1172C205.893 99.1172 205.143 98.8281 204.592 98.25C204.045 97.6719 203.771 96.8691 203.771 95.8418C203.771 94.8066 204.025 93.9844 204.533 93.375C205.045 92.7656 205.73 92.4609 206.59 92.4609C207.395 92.4609 208.031 92.7266 208.5 93.2578C208.969 93.7852 209.203 94.4824 209.203 95.3496V95.9648H204.779C204.799 96.7188 204.988 97.291 205.348 97.6816C205.711 98.0723 206.221 98.2676 206.877 98.2676C207.568 98.2676 208.252 98.123 208.928 97.834V98.7012C208.584 98.8496 208.258 98.9551 207.949 99.0176C207.645 99.084 207.275 99.1172 206.842 99.1172ZM206.578 93.2754C206.062 93.2754 205.65 93.4434 205.342 93.7793C205.037 94.1152 204.857 94.5801 204.803 95.1738H208.16C208.16 94.5605 208.023 94.0918 207.75 93.7676C207.477 93.4395 207.086 93.2754 206.578 93.2754ZM214.201 98.0625L214.383 97.5176L214.635 96.8262L216.375 92.5898H217.611V99H216.75V93.6973L216.633 94.0371L216.293 94.9336L214.635 99H213.82L212.162 94.9219C211.955 94.3984 211.812 93.9902 211.734 93.6973V99H210.867V92.5898H212.057L213.738 96.6621C213.906 97.0918 214.061 97.5586 214.201 98.0625ZM225.234 95.7832C225.234 96.8301 224.971 97.6484 224.443 98.2383C223.916 98.8242 223.188 99.1172 222.258 99.1172C221.684 99.1172 221.174 98.9824 220.729 98.7129C220.283 98.4434 219.939 98.0566 219.697 97.5527C219.455 97.0488 219.334 96.459 219.334 95.7832C219.334 94.7363 219.596 93.9219 220.119 93.3398C220.643 92.7539 221.369 92.4609 222.299 92.4609C223.197 92.4609 223.91 92.7598 224.438 93.3574C224.969 93.9551 225.234 94.7637 225.234 95.7832ZM220.342 95.7832C220.342 96.6035 220.506 97.2285 220.834 97.6582C221.162 98.0879 221.645 98.3027 222.281 98.3027C222.918 98.3027 223.4 98.0898 223.729 97.6641C224.061 97.2344 224.227 96.6074 224.227 95.7832C224.227 94.9668 224.061 94.3477 223.729 93.9258C223.4 93.5 222.914 93.2871 222.27 93.2871C221.633 93.2871 221.152 93.4961 220.828 93.9141C220.504 94.332 220.342 94.9551 220.342 95.7832ZM227.918 92.5781V95.2676H231.516V92.5781H232.488V99H231.516V96.1055H227.918V99H226.945V92.5781H227.918ZM238.881 93.4102H236.795V99H235.822V93.4102H233.76V92.5781H238.881V93.4102Z" fill="white"/>
</g>
<defs>
<filter id="filter0_d_569_4095" x="0" y="0" width="148" height="144" filterUnits="userSpaceOnUse" color-interpolation-filters="sRGB">
<feFlood flood-opacity="0" result="BackgroundImageFix"/>
<feColorMatrix in="SourceAlpha" type="matrix" values="0 0 0 0 0 0 0 0 0 0 0 0 0 0 0 0 0 0 127 0" result="hardAlpha"/>
<feOffset dy="4"/>
<feGaussianBlur stdDeviation="2"/>
<feComposite in2="hardAlpha" operator="out"/>
<feColorMatrix type="matrix" values="0 0 0 0 0 0 0 0 0 0 0 0 0 0 0 0 0 0 0.25 0"/>
<feBlend mode="normal" in2="BackgroundImageFix" result="effect1_dropShadow_569_4095"/>
<feBlend mode="normal" in="SourceGraphic" in2="effect1_dropShadow_569_4095" result="shape"/>
</filter>
<filter id="filter1_d_569_4095" x="164.434" y="38.5742" width="202.238" height="71.3086" filterUnits="userSpaceOnUse" color-interpolation-filters="sRGB">
<feFlood flood-opacity="0" result="BackgroundImageFix"/>
<feColorMatrix in="SourceAlpha" type="matrix" values="0 0 0 0 0 0 0 0 0 0 0 0 0 0 0 0 0 0 127 0" result="hardAlpha"/>
<feOffset dy="4"/>
<feGaussianBlur stdDeviation="2"/>
<feComposite in2="hardAlpha" operator="out"/>
<feColorMatrix type="matrix" values="0 0 0 0 0 0 0 0 0 0 0 0 0 0 0 0 0 0 0.25 0"/>
<feBlend mode="normal" in2="BackgroundImageFix" result="effect1_dropShadow_569_4095"/>
<feBlend mode="normal" in="SourceGraphic" in2="effect1_dropShadow_569_4095" result="shape"/>
</filter>
</defs>
</svg>
